<svg width="64" height="64" viewBox="0 0 64 64" fill="none" xmlns="http://www.w3.org/2000/svg">
<rect width="64" height="64" fill="white"/>
<path d="M34.1341 19.437L32.137 23.1949H25.563V9.66504C25.563 9.48866 25.6316 9.31951 25.7537 9.19479C25.8758 9.07007 26.0414 9 26.2141 9H33.4829C33.6556 9 33.8212 9.07007 33.9434 9.19479C34.0655 9.31951 34.1341 9.48866 34.1341 9.66504V19.4338V19.437Z" fill="#5E5F7E"/>
<path d="M34.134 17.6201V18.8929V20.102V21.3144C34.1352 22.8442 33.7451 24.3477 33.0023 25.6762C32.2595 27.0047 31.1898 28.1119 29.8992 28.8883C28.6086 29.6647 27.1417 30.0834 25.644 30.1028C24.1462 30.1222 22.6695 29.7417 21.36 28.9989L20.5312 28.5121L20.2197 28.3275L11.3277 23.0931C11.2532 23.0493 11.1878 22.9909 11.1355 22.9212C11.0831 22.8516 11.0446 22.7721 11.0223 22.6873C11.0001 22.6025 10.9944 22.514 11.0056 22.4269C11.0168 22.3399 11.0447 22.2559 11.0877 22.1799L14.7174 15.7554C14.7598 15.6795 14.8164 15.613 14.884 15.5595C14.9516 15.5061 15.029 15.4669 15.1115 15.4441C15.194 15.4213 15.2802 15.4155 15.3649 15.4268C15.4497 15.4382 15.5314 15.4666 15.6054 15.5104L26.6098 21.9985C27.3666 22.456 28.2284 22.7009 29.1078 22.7083C29.9871 22.7158 30.8528 22.4855 31.6169 22.0409C32.381 21.5962 33.0163 20.9531 33.4584 20.1767C33.9005 19.4002 34.1336 18.5182 34.134 17.6201Z" fill="#18274A"/>
<path d="M19.6184 34.9875L23.8027 34.8729L27.1021 40.6801L15.621 47.4514C15.4718 47.5392 15.2946 47.5631 15.1282 47.5178C14.9617 47.4724 14.8197 47.3616 14.7331 47.2096L11.1002 40.7819C11.0572 40.7059 11.0293 40.6219 11.0181 40.5349C11.0069 40.4478 11.0126 40.3593 11.0349 40.2745C11.0571 40.1897 11.0956 40.1102 11.1479 40.0406C11.2003 39.9709 11.2656 39.9125 11.3401 39.8687L19.6184 34.9875Z" fill="#5E5F7E"/>
<path d="M18.0823 35.8912L19.1603 35.2548L20.1884 34.6566L21.2228 34.0583C22.5185 33.2947 23.9869 32.8895 25.4828 32.8828C26.9787 32.8761 28.4505 33.268 29.7528 34.0199C31.055 34.7718 32.1427 35.8577 32.9083 37.1703C33.6739 38.4828 34.091 39.9767 34.1184 41.5042V53.3318C34.1184 53.4195 34.1015 53.5064 34.0686 53.5875C34.0357 53.6686 33.9875 53.7422 33.9268 53.8043C33.866 53.8663 33.7939 53.9155 33.7145 53.9491C33.6351 53.9827 33.5501 54 33.4641 54H26.2047C26.1194 54.0004 26.0347 53.9836 25.9558 53.9505C25.8768 53.9175 25.805 53.8688 25.7445 53.8073C25.6839 53.7458 25.6359 53.6727 25.6032 53.5922C25.5704 53.5117 25.5535 53.4253 25.5535 53.3381V40.3619C25.5636 39.4639 25.3409 38.5792 24.908 37.7975C24.4752 37.0158 23.8476 36.365 23.0889 35.911C22.3303 35.457 21.4675 35.2161 20.5882 35.2126C19.7089 35.2091 18.8444 35.4432 18.0823 35.8912Z" fill="#18274A"/>
<path d="M40.0849 40.0405L37.904 36.3971L41.1785 30.574L52.6534 37.3485C52.8022 37.437 52.9107 37.5821 52.9551 37.752C52.9995 37.922 52.9761 38.103 52.8902 38.2554L49.2573 44.6672C49.1707 44.8192 49.0287 44.93 48.8622 44.9754C48.6958 45.0207 48.5186 44.9968 48.3694 44.909L40.0849 40.0405Z" fill="#5E5F7E"/>
<path d="M41.6209 40.9442L40.5429 40.3078L39.5209 39.6969L38.4959 39.0827C37.2009 38.3184 36.1235 37.2224 35.37 35.9028C34.6166 34.5832 34.2132 33.0857 34.1996 31.5582C34.1861 30.0307 34.5629 28.526 35.2929 27.1927C36.0228 25.8594 37.0807 24.7436 38.3619 23.9555L39.1876 23.4686L39.4991 23.284L48.388 18.0401C48.5381 17.9524 48.7161 17.9289 48.8831 17.9748C49.05 18.0208 49.1924 18.1323 49.2791 18.2851L52.9119 24.7096C52.9549 24.785 52.9829 24.8683 52.9942 24.9547C53.0056 25.0411 53.0002 25.129 52.9782 25.2133C52.9562 25.2976 52.918 25.3766 52.866 25.4458C52.814 25.515 52.7492 25.573 52.6752 25.6165L41.677 32.1046C40.9114 32.5449 40.2733 33.1841 39.8275 33.9573C39.3816 34.7306 39.1438 35.6104 39.1381 36.5078C39.1324 37.4051 39.359 38.2881 39.795 39.0672C40.231 39.8463 40.8609 40.4938 41.6209 40.9442V40.9442Z" fill="#18274A"/>
</svg>
