<svg width="64" height="64" viewBox="0 0 64 64" fill="none" xmlns="http://www.w3.org/2000/svg">
  <rect width="64" height="64" fill="white"/>
  <path d="M33.9713 34.4288L32.0853 41.6259H35.7637L34.0521 34.4286H33.9713V34.4288ZM30.9283 27.454H39.0179L46.2956 48H37.5634L36.9666 45.86H30.7612L30.1515 48H23.1013L30.9283 27.454ZM43.2766 33.1484C43.2384 33.1275 44.3849 32.4315 44.2957 31.9067C44.4158 31.9489 44.4753 31.9061 44.4736 31.7781C44.6556 32.1053 44.759 31.8503 44.5177 32.2098C44.5862 32.1822 44.6136 32.1958 44.6002 32.2502C44.8349 32.4495 45.5838 31.6581 45.5863 31.655C46.0728 31.6253 47.4761 31.416 47.7256 31.3483C47.6551 31.32 47.627 31.3341 47.641 31.3905C47.919 31.4882 48.7979 29.3511 48.4931 28.9088C48.4931 28.4404 48.4483 27.4057 49.136 27.195C50.3194 26.0111 51.3952 28.5578 50.4563 28.3081C50.5569 29.3978 50.583 30.0732 50.372 30.3655C50.441 30.5051 50.3951 30.8268 50.3312 30.9643C52.3474 30.695 53.8871 30.2228 55.3067 30.5767C54.9739 30.5852 55.1655 30.4838 54.8296 30.5767C54.8443 30.5345 54.8314 30.5198 54.791 30.5327C55.0961 30.4939 56.0202 30.6831 56.3742 30.4445C56.7408 31.3266 56.6018 32.708 55.6435 33.6589C55.8209 33.7772 55.7434 33.649 55.9445 33.7875C55.8802 33.8329 55.8521 33.8893 55.8599 33.9565C55.4518 33.7745 55.3001 33.8443 55.0873 33.8281C54.9526 33.786 54.7277 33.6244 54.4904 33.6114C52.9889 33.9378 50.9174 32.5783 49.871 34.8623C48.968 36.8331 50.3813 39.2164 48.8391 40.5577C48.9201 40.1639 48.5814 40.4368 48.1506 40.3022C48.1903 40.0928 48.4905 40.0228 48.4977 40.045C47.8749 39.649 48.0241 39.7476 47.6441 38.8457C47.4972 38.7502 47.7367 39.2329 47.4678 39.0588C47.2564 38.6725 48.0018 37.8442 48.2444 37.5618C48.0949 37.477 47.6024 37.5389 47.5135 37.2205C47.5446 37.1133 47.8074 37.0617 47.8531 37.0054C47.2704 36.7091 47.6731 36.8967 47.5135 36.5315C47.648 36.3113 47.7425 36.7457 47.7741 36.6215C47.4391 35.8724 47.6726 34.4532 47.8086 33.7928C47.7126 33.834 47.6715 33.8197 47.6856 33.7506C47.3991 33.8744 47.4689 34.1141 47.2983 33.7083C46.9659 34.0537 47.1648 33.7006 46.7437 33.9196C46.8783 33.6905 47.0618 33.9696 47.1293 33.7083C46.2967 33.7094 46.1316 33.7925 45.4639 34.133C45.7303 34.138 45.9446 34.0291 46.1929 34.0447C46.1637 34.1768 46.1931 34.2348 46.2811 34.2192C46.1353 34.3309 45.9182 34.3226 45.6749 34.2175C45.6481 34.2354 45.6672 34.6097 45.464 34.7317C45.397 34.5794 45.3722 34.5322 45.3296 34.131C45.2868 34.1457 45.2721 34.1323 45.2855 34.0904C45.2031 34.2712 44.9227 34.4126 44.6391 34.6011C44.6437 34.8502 44.941 34.6162 44.944 34.7682C44.0059 35.1582 43.1563 34.3006 43.2766 33.1484C43.2766 33.1484 43.1462 33.0768 43.2766 33.1484Z" fill="#8D2927"/>
  <path d="M23.5439 17C26.0727 17.1929 28.3058 18.5412 29.1579 20.9898C30.0908 23.3888 29.4756 26.3389 27.7457 28.0675C25.586 30.1028 22.4273 30.0201 19.3347 29.965L19.3402 37.5093C19.4027 38.4296 19.7442 39.3444 20.5798 39.7375C21.162 39.9249 21.8047 39.9543 22.4457 39.9892C22.4457 40.2941 22.4346 40.441 22.4346 40.8709L10 40.8782C10 40.5678 10.0129 40.3272 10.0129 39.9708C10.8172 39.9783 11.8144 39.7099 12.257 38.9954C12.7877 38.0714 12.8116 36.9509 12.7602 35.814L12.7124 20.503C12.7124 19.5295 12.527 18.4144 11.5279 18.1646C11.1459 18.0562 10.663 17.9975 10.0294 17.9975C10.0294 17.6154 10.0294 17.5988 10.0294 17.0092L23.5439 17ZM19.3127 18.3869V28.4863C20.2658 28.659 21.2409 28.2677 21.8525 27.5164C23.1233 25.4554 23.0976 22.2573 22.2326 19.9942C21.7111 18.9141 20.5651 18.2969 19.3127 18.3869Z" fill="black"/>
</svg>
