<svg xmlns="http://www.w3.org/2000/svg" version="1.0" width="64px" height="64px" viewBox="0 0 64 64" preserveAspectRatio="xMidYMid meet">
  <rect width="100%" height="100%" fill="#df2d8d" />
  <g id="layer102" fill="#fffefe" stroke="none">
    <path d="M27.1644 53.3333 c-2.2187 -0.4836 -5.2622 -1.6498 -7.2533 -2.7591 -1.9911 -1.1093 -3.9538 -2.56 -3.9538 -2.9298 0 -0.1422 0.5973 -0.9671 1.3369 -1.792 l1.3369 -1.5076 1.9911 1.28 c7.4524 4.8924 16.0996 4.6933 24.0924 -0.6258 0.5973 -0.3698 1.1378 -0.6542 1.1662 -0.5973 0.0569 0.0569 0.6258 0.7964 1.3084 1.6213 0.6827 0.8249 1.1662 1.6498 1.0809 1.8773 -0.3129 0.7964 -5.2053 3.6409 -7.9929 4.608 -3.4702 1.2516 -9.5004 1.6213 -13.1129 0.8249z"/>
    <path d="M26.7378 38.7698 c0 -0.1422 0.3982 -1.6782 0.8533 -3.4702 0.4836 -1.7636 0.8533 -3.3849 0.8533 -3.584 0 -0.2276 -0.7964 0.0284 -2.1049 0.6827 -4.2098 2.1333 -7.8222 2.8729 -8.4196 1.7351 -0.1707 -0.3129 -1.792 -1.6782 -3.584 -3.0436 -1.792 -1.3369 -3.2142 -2.5884 -3.1573 -2.7591 0.0569 -0.1707 0.6258 -0.6258 1.3084 -0.9671 l1.1947 -0.6827 3.7547 1.024 c2.0764 0.5689 3.9822 1.024 4.2382 1.024 0.5689 0 4.8356 -2.5884 4.9778 -2.9867 0.0284 -0.1422 -2.0764 -1.5644 -4.6933 -3.1289 -2.6169 -1.536 -5.2622 -3.1289 -5.8596 -3.4987 l-1.1093 -0.6827 1.536 -0.9671 c0.8533 -0.512 1.8204 -0.9671 2.1902 -0.9671 0.3698 0 2.7307 0.4551 5.2622 1.024 7.0258 1.536 11.2924 2.3893 12.0036 2.3893 0.3413 0 2.1333 -0.9102 4.0107 -2.0196 1.8489 -1.1093 3.84 -2.1902 4.3804 -2.3893 0.5404 -0.1707 2.6169 -0.4267 4.5796 -0.5404 3.328 -0.1707 3.6124 -0.1422 4.096 0.3982 1.4222 1.5644 -0.6542 3.4418 -8.2773 7.3956 l-6.0871 3.1573 -2.1902 3.328 c-1.1947 1.8204 -2.9867 4.5796 -3.9822 6.0871 -1.7067 2.6453 -1.8489 2.7876 -3.2711 3.2142 -1.5929 0.4551 -2.5031 0.5404 -2.5031 0.2276z"/>
  </g>
</svg>
