<svg width="64" height="64" viewBox="0 0 64 64" fill="none" xmlns="http://www.w3.org/2000/svg">
	<rect width="64" height="64" fill="white" />
	<path d="M12.4785 15.2883C11.9076 15.3888 11.3196 15.6904 10.8765 16.126C9.41931 17.5332 9.83686 19.9039 11.686 20.8169C12.0524 21.0012 12.2228 21.0263 12.9642 21.0263C13.7056 21.0263 13.876 21.0012 14.2424 20.8169C14.8133 20.5321 15.3587 19.9876 15.6229 19.4264C15.8189 19.0075 15.853 18.974 16.1256 18.974H16.4154V21.9478V24.9215H25.3628H34.3103V34.4709V44.0204H32.0521H29.7939V38.0478V32.0752L30.237 31.7904C30.7228 31.4637 31.2511 30.7684 31.413 30.2491C31.4726 30.0564 31.5152 29.6627 31.5152 29.3612C31.4982 26.9403 28.6435 25.6084 26.7092 27.1162C25.3458 28.1717 25.252 30.2575 26.5132 31.4721C26.7348 31.6899 26.9904 31.8909 27.0756 31.9161C27.229 31.9663 27.2375 32.226 27.2375 39.2122V46.4496H30.7739H34.3103V46.8601C34.3103 47.2035 34.2762 47.2873 34.1398 47.3292C33.8586 47.4213 33.228 48.0831 32.9809 48.5522C32.6742 49.1386 32.606 50.0851 32.8105 50.705C33.1087 51.5846 33.8245 52.3133 34.6596 52.6149C35.222 52.8076 36.1253 52.7824 36.7389 52.5563C37.4376 52.2966 38.1278 51.6181 38.392 50.9312C38.8948 49.6328 38.4176 48.125 37.2842 47.4381L36.8667 47.1784V36.0541V24.9215H42.0136H47.169L47.3735 25.3571C47.6207 25.8932 48.1745 26.4544 48.754 26.7476C49.1289 26.9487 49.2738 26.9738 50.0322 26.9738C50.7736 26.9738 50.944 26.9487 51.3104 26.7644C51.9325 26.4544 52.5801 25.7843 52.8017 25.1979C53.4748 23.4388 52.3671 21.5373 50.4924 21.2441C49.2312 21.0431 47.9104 21.73 47.3821 22.8692C47.1775 23.2964 47.1435 23.3299 46.8708 23.3299H46.581V20.3562V17.3825L31.1829 17.3657C15.853 17.3406 15.7763 17.3406 15.7422 17.173C15.6825 16.8631 15.1116 16.1092 14.7196 15.8244C14.0805 15.3637 13.2454 15.171 12.4785 15.2883ZM13.6118 17.0641C14.2509 17.416 14.4725 18.329 14.0464 18.8819C13.7908 19.2253 13.3562 19.4766 13.0239 19.4766C12.5552 19.4766 12.0439 19.1918 11.8309 18.8149C11.1747 17.6756 12.4529 16.4191 13.6118 17.0641ZM44.0246 21.152V22.4923H31.4982H18.9718V21.152V19.8117H31.4982H44.0246V21.152ZM50.8162 23.0619C51.6172 23.6231 51.4808 24.9047 50.5776 25.2985C49.7851 25.6503 48.8563 25.1309 48.737 24.2681C48.6773 23.799 48.95 23.2545 49.3675 23.0116C49.7766 22.7687 50.4327 22.7938 50.8162 23.0619ZM29.2912 28.2973C30.1348 28.8502 30.041 30.1151 29.1293 30.5423C28.2771 30.9527 27.3483 30.4166 27.2631 29.4701C27.2034 28.6994 27.7914 28.1046 28.6095 28.1046C28.8736 28.1046 29.0952 28.1633 29.2912 28.2973ZM36.2617 48.7197C36.7048 48.9627 36.8922 49.2642 36.9263 49.7501C36.9689 50.2946 36.7644 50.6966 36.3043 50.9479C35.7163 51.283 35.0772 51.1657 34.6255 50.6464C33.7223 49.5825 35.0346 48.0328 36.2617 48.7197Z" fill="#F2004A" />
</svg>
